<mxfile host="app.diagrams.net" agent="Mozilla/5.0 (Windows NT 10.0; Win64; x64) AppleWebKit/537.36 (KHTML, like Gecko) Chrome/139.0.0.0 Safari/537.36 Edg/139.0.0.0" version="28.1.2">
  <diagram id="prtHgNgQTEPvFCAcTncT" name="Page-1">
    <mxGraphModel dx="1210" dy="451" grid="0" gridSize="10" guides="1" tooltips="1" connect="1" arrows="1" fold="1" page="0" pageScale="1" pageWidth="827" pageHeight="1169" math="0" shadow="0">
      <root>
        <mxCell id="0" />
        <mxCell id="1" parent="0" />
        <mxCell id="0zYFMab2U9M-8NxkRJWx-2" value="&lt;font style=&quot;font-size: 18px;&quot;&gt;ROS其他节点&lt;/font&gt;" style="rounded=0;whiteSpace=wrap;html=1;" parent="1" vertex="1">
          <mxGeometry x="387" y="113" width="160" height="60" as="geometry" />
        </mxCell>
        <mxCell id="0zYFMab2U9M-8NxkRJWx-15" value="&lt;h5 style=&quot;box-sizing: border-box; outline: 0px; margin: 24px 0px 8px; padding: 0px; line-height: 24px; font-synthesis-style: auto; overflow-wrap: break-word; background-color: rgb(255, 255, 255); color: rgb(79, 79, 79);&quot;&gt;&lt;font style=&quot;font-size: 18px;&quot;&gt;/mavros/state话题&lt;/font&gt;&lt;/h5&gt;" style="rounded=0;whiteSpace=wrap;html=1;align=center;" parent="1" vertex="1">
          <mxGeometry x="164" y="264.75" width="123" height="75" as="geometry" />
        </mxCell>
        <mxCell id="0zYFMab2U9M-8NxkRJWx-18" value="&lt;h5 style=&quot;box-sizing: border-box; outline: 0px; margin: 24px 0px 8px; padding: 0px; line-height: 24px; font-synthesis-style: auto; overflow-wrap: break-word; color: rgb(79, 79, 79); background-color: rgb(255, 255, 255);&quot;&gt;&lt;font style=&quot;font-size: 18px;&quot;&gt;/mavros/setpoint_raw/attitude话题&lt;/font&gt;&lt;/h5&gt;" style="rounded=0;whiteSpace=wrap;html=1;align=center;" parent="1" vertex="1">
          <mxGeometry x="-163" y="264.75" width="264" height="75" as="geometry" />
        </mxCell>
        <mxCell id="0zYFMab2U9M-8NxkRJWx-19" value="&lt;h5 style=&quot;box-sizing: border-box; outline: 0px; margin: 24px 0px 8px; padding: 0px; line-height: 24px; font-synthesis-style: auto; overflow-wrap: break-word; color: rgb(79, 79, 79); background-color: rgb(255, 255, 255);&quot;&gt;&lt;font style=&quot;font-size: 18px;&quot;&gt;/mavros/cmd/arming服务&lt;/font&gt;&lt;/h5&gt;" style="whiteSpace=wrap;html=1;align=center;" parent="1" vertex="1">
          <mxGeometry x="558" y="262" width="180" height="75" as="geometry" />
        </mxCell>
        <mxCell id="0zYFMab2U9M-8NxkRJWx-20" value="&lt;h5 style=&quot;box-sizing: border-box; outline: 0px; margin: 24px 0px 8px; padding: 0px; line-height: 24px; font-synthesis-style: auto; overflow-wrap: break-word; color: rgb(79, 79, 79); background-color: rgb(255, 255, 255);&quot;&gt;&lt;font style=&quot;font-size: 18px;&quot;&gt;/mavros/set_mode服务&lt;/font&gt;&lt;/h5&gt;" style="rounded=0;whiteSpace=wrap;html=1;align=center;" parent="1" vertex="1">
          <mxGeometry x="350" y="262" width="170" height="74" as="geometry" />
        </mxCell>
        <mxCell id="0zYFMab2U9M-8NxkRJWx-21" value="&lt;span style=&quot;text-align: start; color: rgb(64, 64, 64);&quot;&gt;&lt;font style=&quot;font-size: 18px;&quot;&gt;&lt;b&gt;use_mission_item_int参数&lt;/b&gt;&lt;/font&gt;&lt;/span&gt;" style="rounded=0;whiteSpace=wrap;html=1;" parent="1" vertex="1">
          <mxGeometry x="783" y="259" width="198" height="78" as="geometry" />
        </mxCell>
        <mxCell id="0zYFMab2U9M-8NxkRJWx-22" value="&lt;b&gt;&lt;font style=&quot;font-size: 18px;&quot;&gt;...&lt;/font&gt;&lt;/b&gt;" style="rounded=0;whiteSpace=wrap;html=1;" parent="1" vertex="1">
          <mxGeometry x="1034" y="266.75" width="136" height="62.5" as="geometry" />
        </mxCell>
        <mxCell id="0zYFMab2U9M-8NxkRJWx-24" style="edgeStyle=orthogonalEdgeStyle;rounded=0;orthogonalLoop=1;jettySize=auto;html=1;exitX=0.25;exitY=1;exitDx=0;exitDy=0;entryX=0.466;entryY=0.02;entryDx=0;entryDy=0;entryPerimeter=0;curved=1;" parent="1" source="0zYFMab2U9M-8NxkRJWx-2" target="0zYFMab2U9M-8NxkRJWx-15" edge="1">
          <mxGeometry relative="1" as="geometry" />
        </mxCell>
        <mxCell id="0zYFMab2U9M-8NxkRJWx-26" value="&lt;font style=&quot;font-size: 14px;&quot;&gt;subscribe&lt;/font&gt;" style="edgeLabel;html=1;align=center;verticalAlign=middle;resizable=0;points=[];" parent="0zYFMab2U9M-8NxkRJWx-24" vertex="1" connectable="0">
          <mxGeometry x="-0.0657" y="-1" relative="1" as="geometry">
            <mxPoint as="offset" />
          </mxGeometry>
        </mxCell>
        <mxCell id="0zYFMab2U9M-8NxkRJWx-27" style="edgeStyle=orthogonalEdgeStyle;rounded=0;orthogonalLoop=1;jettySize=auto;html=1;exitX=0;exitY=0.5;exitDx=0;exitDy=0;entryX=0.5;entryY=0;entryDx=0;entryDy=0;curved=1;" parent="1" source="0zYFMab2U9M-8NxkRJWx-2" target="0zYFMab2U9M-8NxkRJWx-18" edge="1">
          <mxGeometry relative="1" as="geometry">
            <mxPoint x="808" y="187" as="sourcePoint" />
            <mxPoint x="344" y="302" as="targetPoint" />
          </mxGeometry>
        </mxCell>
        <mxCell id="0zYFMab2U9M-8NxkRJWx-28" value="&lt;span style=&quot;font-size: 14px;&quot;&gt;publish&lt;/span&gt;" style="edgeLabel;html=1;align=center;verticalAlign=middle;resizable=0;points=[];" parent="0zYFMab2U9M-8NxkRJWx-27" vertex="1" connectable="0">
          <mxGeometry x="-0.0657" y="-1" relative="1" as="geometry">
            <mxPoint as="offset" />
          </mxGeometry>
        </mxCell>
        <mxCell id="0zYFMab2U9M-8NxkRJWx-29" style="edgeStyle=orthogonalEdgeStyle;rounded=0;orthogonalLoop=1;jettySize=auto;html=1;exitX=0.75;exitY=1;exitDx=0;exitDy=0;entryX=0.5;entryY=0;entryDx=0;entryDy=0;curved=1;" parent="1" source="0zYFMab2U9M-8NxkRJWx-2" target="0zYFMab2U9M-8NxkRJWx-19" edge="1">
          <mxGeometry relative="1" as="geometry">
            <mxPoint x="758" y="207" as="sourcePoint" />
            <mxPoint x="519" y="305" as="targetPoint" />
          </mxGeometry>
        </mxCell>
        <mxCell id="0zYFMab2U9M-8NxkRJWx-30" value="&lt;span style=&quot;font-size: 14px;&quot;&gt;request&lt;/span&gt;" style="edgeLabel;html=1;align=center;verticalAlign=middle;resizable=0;points=[];" parent="0zYFMab2U9M-8NxkRJWx-29" vertex="1" connectable="0">
          <mxGeometry x="-0.0657" y="-1" relative="1" as="geometry">
            <mxPoint as="offset" />
          </mxGeometry>
        </mxCell>
        <mxCell id="0zYFMab2U9M-8NxkRJWx-31" style="edgeStyle=orthogonalEdgeStyle;rounded=0;orthogonalLoop=1;jettySize=auto;html=1;exitX=0.5;exitY=1;exitDx=0;exitDy=0;entryX=0.5;entryY=0;entryDx=0;entryDy=0;curved=1;" parent="1" source="0zYFMab2U9M-8NxkRJWx-2" target="0zYFMab2U9M-8NxkRJWx-20" edge="1">
          <mxGeometry relative="1" as="geometry">
            <mxPoint x="630" y="193" as="sourcePoint" />
            <mxPoint x="598" y="291" as="targetPoint" />
          </mxGeometry>
        </mxCell>
        <mxCell id="0zYFMab2U9M-8NxkRJWx-32" value="&lt;span style=&quot;font-size: 14px;&quot;&gt;request&lt;/span&gt;" style="edgeLabel;html=1;align=center;verticalAlign=middle;resizable=0;points=[];" parent="0zYFMab2U9M-8NxkRJWx-31" vertex="1" connectable="0">
          <mxGeometry x="-0.0657" y="-1" relative="1" as="geometry">
            <mxPoint as="offset" />
          </mxGeometry>
        </mxCell>
        <mxCell id="0zYFMab2U9M-8NxkRJWx-33" style="edgeStyle=orthogonalEdgeStyle;rounded=0;orthogonalLoop=1;jettySize=auto;html=1;exitX=1;exitY=0.75;exitDx=0;exitDy=0;entryX=0.5;entryY=0;entryDx=0;entryDy=0;curved=1;" parent="1" source="0zYFMab2U9M-8NxkRJWx-2" target="0zYFMab2U9M-8NxkRJWx-21" edge="1">
          <mxGeometry relative="1" as="geometry">
            <mxPoint x="710" y="183" as="sourcePoint" />
            <mxPoint x="852" y="282" as="targetPoint" />
          </mxGeometry>
        </mxCell>
        <mxCell id="0zYFMab2U9M-8NxkRJWx-34" value="&lt;span style=&quot;font-size: 14px;&quot;&gt;读写&lt;/span&gt;" style="edgeLabel;html=1;align=center;verticalAlign=middle;resizable=0;points=[];" parent="0zYFMab2U9M-8NxkRJWx-33" vertex="1" connectable="0">
          <mxGeometry x="-0.0657" y="-1" relative="1" as="geometry">
            <mxPoint as="offset" />
          </mxGeometry>
        </mxCell>
        <mxCell id="0zYFMab2U9M-8NxkRJWx-35" style="edgeStyle=orthogonalEdgeStyle;rounded=0;orthogonalLoop=1;jettySize=auto;html=1;exitX=1;exitY=0.5;exitDx=0;exitDy=0;entryX=0.5;entryY=0;entryDx=0;entryDy=0;curved=1;" parent="1" source="0zYFMab2U9M-8NxkRJWx-2" target="0zYFMab2U9M-8NxkRJWx-22" edge="1">
          <mxGeometry relative="1" as="geometry">
            <mxPoint x="808" y="150" as="sourcePoint" />
            <mxPoint x="1113" y="274" as="targetPoint" />
          </mxGeometry>
        </mxCell>
        <mxCell id="0zYFMab2U9M-8NxkRJWx-36" value="&lt;span style=&quot;font-size: 14px;&quot;&gt;读写&lt;/span&gt;" style="edgeLabel;html=1;align=center;verticalAlign=middle;resizable=0;points=[];" parent="0zYFMab2U9M-8NxkRJWx-35" vertex="1" connectable="0">
          <mxGeometry x="-0.0657" y="-1" relative="1" as="geometry">
            <mxPoint as="offset" />
          </mxGeometry>
        </mxCell>
        <mxCell id="0zYFMab2U9M-8NxkRJWx-42" value="" style="endArrow=classic;html=1;rounded=0;exitX=0.5;exitY=1;exitDx=0;exitDy=0;entryX=0.5;entryY=0;entryDx=0;entryDy=0;" parent="1" source="0zYFMab2U9M-8NxkRJWx-18" target="0zYFMab2U9M-8NxkRJWx-38" edge="1">
          <mxGeometry width="50" height="50" relative="1" as="geometry">
            <mxPoint x="50" y="398" as="sourcePoint" />
            <mxPoint x="100" y="348" as="targetPoint" />
          </mxGeometry>
        </mxCell>
        <mxCell id="0zYFMab2U9M-8NxkRJWx-43" value="" style="endArrow=classic;html=1;rounded=0;exitX=0.5;exitY=1;exitDx=0;exitDy=0;entryX=0.5;entryY=0;entryDx=0;entryDy=0;" parent="1" source="0zYFMab2U9M-8NxkRJWx-15" target="0zYFMab2U9M-8NxkRJWx-37" edge="1">
          <mxGeometry width="50" height="50" relative="1" as="geometry">
            <mxPoint x="601" y="594" as="sourcePoint" />
            <mxPoint x="651" y="544" as="targetPoint" />
          </mxGeometry>
        </mxCell>
        <mxCell id="0zYFMab2U9M-8NxkRJWx-44" value="" style="endArrow=classic;html=1;rounded=0;exitX=0.5;exitY=1;exitDx=0;exitDy=0;entryX=0.5;entryY=0;entryDx=0;entryDy=0;" parent="1" source="0zYFMab2U9M-8NxkRJWx-20" target="0zYFMab2U9M-8NxkRJWx-37" edge="1">
          <mxGeometry width="50" height="50" relative="1" as="geometry">
            <mxPoint x="385" y="417" as="sourcePoint" />
            <mxPoint x="435" y="367" as="targetPoint" />
          </mxGeometry>
        </mxCell>
        <mxCell id="0zYFMab2U9M-8NxkRJWx-45" value="" style="endArrow=classic;html=1;rounded=0;exitX=0.5;exitY=1;exitDx=0;exitDy=0;entryX=0.5;entryY=0;entryDx=0;entryDy=0;" parent="1" source="0zYFMab2U9M-8NxkRJWx-19" target="0zYFMab2U9M-8NxkRJWx-39" edge="1">
          <mxGeometry width="50" height="50" relative="1" as="geometry">
            <mxPoint x="656" y="413" as="sourcePoint" />
            <mxPoint x="706" y="363" as="targetPoint" />
          </mxGeometry>
        </mxCell>
        <mxCell id="0zYFMab2U9M-8NxkRJWx-46" value="" style="endArrow=classic;html=1;rounded=0;exitX=0.5;exitY=1;exitDx=0;exitDy=0;entryX=0.5;entryY=0;entryDx=0;entryDy=0;" parent="1" source="0zYFMab2U9M-8NxkRJWx-21" target="0zYFMab2U9M-8NxkRJWx-40" edge="1">
          <mxGeometry width="50" height="50" relative="1" as="geometry">
            <mxPoint x="601" y="594" as="sourcePoint" />
            <mxPoint x="651" y="544" as="targetPoint" />
            <Array as="points" />
          </mxGeometry>
        </mxCell>
        <mxCell id="0zYFMab2U9M-8NxkRJWx-13" value="" style="swimlane;startSize=0;fillColor=#D5E8D4;" parent="1" vertex="1">
          <mxGeometry x="-206" y="382" width="1540" height="629" as="geometry">
            <mxRectangle x="200" y="200" width="50" height="40" as="alternateBounds" />
          </mxGeometry>
        </mxCell>
        <mxCell id="0zYFMab2U9M-8NxkRJWx-50" value="" style="swimlane;startSize=0;fillColor=#d5e8d4;strokeColor=#82b366;fillStyle=auto;shadow=0;gradientColor=none;" parent="0zYFMab2U9M-8NxkRJWx-13" vertex="1">
          <mxGeometry x="71" y="33" width="1312" height="211" as="geometry" />
        </mxCell>
        <mxCell id="0zYFMab2U9M-8NxkRJWx-38" value="&lt;font style=&quot;font-size: 18px;&quot;&gt;&lt;b&gt;setpoint_raw原始设定点插件&lt;/b&gt;&lt;/font&gt;" style="whiteSpace=wrap;html=1;" parent="0zYFMab2U9M-8NxkRJWx-50" vertex="1">
          <mxGeometry x="68" y="33" width="128" height="60" as="geometry" />
        </mxCell>
        <mxCell id="0zYFMab2U9M-8NxkRJWx-37" value="&lt;span style=&quot;font-size: 18px; background-color: rgb(255, 255, 255);&quot;&gt;&lt;b&gt;sys_status系统状态插件&lt;/b&gt;&lt;/span&gt;" style="whiteSpace=wrap;html=1;" parent="0zYFMab2U9M-8NxkRJWx-50" vertex="1">
          <mxGeometry x="339" y="18" width="110" height="67" as="geometry" />
        </mxCell>
        <mxCell id="0zYFMab2U9M-8NxkRJWx-39" value="&lt;font style=&quot;font-size: 18px;&quot;&gt;&lt;b&gt;command命令插件&lt;/b&gt;&lt;/font&gt;" style="rounded=0;whiteSpace=wrap;html=1;" parent="0zYFMab2U9M-8NxkRJWx-50" vertex="1">
          <mxGeometry x="609" y="27.5" width="100" height="57.5" as="geometry" />
        </mxCell>
        <mxCell id="0zYFMab2U9M-8NxkRJWx-40" value="&lt;font style=&quot;font-size: 18px;&quot;&gt;&lt;b&gt;waypoint&lt;/b&gt;&lt;/font&gt;&lt;div&gt;&lt;font style=&quot;font-size: 18px;&quot;&gt;&lt;b&gt;航点任务插件&lt;/b&gt;&lt;/font&gt;&lt;/div&gt;" style="whiteSpace=wrap;html=1;" parent="0zYFMab2U9M-8NxkRJWx-50" vertex="1">
          <mxGeometry x="892" y="22.5" width="120" height="62.5" as="geometry" />
        </mxCell>
        <mxCell id="0zYFMab2U9M-8NxkRJWx-41" value="&lt;font style=&quot;font-size: 18px;&quot;&gt;&lt;b&gt;...&lt;/b&gt;&lt;/font&gt;" style="whiteSpace=wrap;html=1;" parent="0zYFMab2U9M-8NxkRJWx-50" vertex="1">
          <mxGeometry x="1109" y="27.5" width="120" height="60" as="geometry" />
        </mxCell>
        <mxCell id="0zYFMab2U9M-8NxkRJWx-52" value="&lt;font style=&quot;font-size: 18px;&quot;&gt;MAVROS UAS&lt;/font&gt;" style="rounded=0;whiteSpace=wrap;html=1;" parent="0zYFMab2U9M-8NxkRJWx-50" vertex="1">
          <mxGeometry y="151" width="160" height="60" as="geometry" />
        </mxCell>
        <mxCell id="0zYFMab2U9M-8NxkRJWx-54" value="&lt;font style=&quot;font-size: 18px;&quot;&gt;消息转换：MAVLink消息 &amp;lt;-&amp;gt; ROS消息&lt;/font&gt;&lt;div&gt;&lt;span style=&quot;font-size: 18px;&quot;&gt;通过各种插件提供ROS接口，即话题、服务、参数&lt;/span&gt;&lt;/div&gt;" style="whiteSpace=wrap;html=1;align=left;" parent="0zYFMab2U9M-8NxkRJWx-50" vertex="1">
          <mxGeometry x="436" y="123" width="460" height="88" as="geometry" />
        </mxCell>
        <mxCell id="0zYFMab2U9M-8NxkRJWx-56" value="" style="swimlane;startSize=0;" parent="0zYFMab2U9M-8NxkRJWx-13" vertex="1">
          <mxGeometry x="65" y="342" width="1329.5" height="154" as="geometry" />
        </mxCell>
        <mxCell id="0zYFMab2U9M-8NxkRJWx-57" value="&lt;font style=&quot;font-size: 18px;&quot;&gt;MAVROS ROUTER&lt;/font&gt;" style="rounded=0;whiteSpace=wrap;html=1;" parent="0zYFMab2U9M-8NxkRJWx-56" vertex="1">
          <mxGeometry y="89" width="169" height="65" as="geometry" />
        </mxCell>
        <mxCell id="0zYFMab2U9M-8NxkRJWx-58" value="&lt;font style=&quot;font-size: 18px;&quot;&gt;管理物理连接&lt;/font&gt;&lt;div&gt;&lt;div&gt;&lt;font style=&quot;font-size: 18px;&quot;&gt;路由MAVLink消息&lt;/font&gt;&lt;/div&gt;&lt;/div&gt;" style="rounded=0;whiteSpace=wrap;html=1;align=left;" parent="0zYFMab2U9M-8NxkRJWx-56" vertex="1">
          <mxGeometry x="482" y="68" width="253" height="86" as="geometry" />
        </mxCell>
        <mxCell id="0zYFMab2U9M-8NxkRJWx-59" value="" style="endArrow=classic;html=1;rounded=0;exitX=0.25;exitY=1;exitDx=0;exitDy=0;entryX=0.25;entryY=0;entryDx=0;entryDy=0;" parent="0zYFMab2U9M-8NxkRJWx-13" source="0zYFMab2U9M-8NxkRJWx-50" target="0zYFMab2U9M-8NxkRJWx-56" edge="1">
          <mxGeometry width="50" height="50" relative="1" as="geometry">
            <mxPoint x="794" y="484" as="sourcePoint" />
            <mxPoint x="844" y="434" as="targetPoint" />
          </mxGeometry>
        </mxCell>
        <mxCell id="0zYFMab2U9M-8NxkRJWx-60" value="&lt;font style=&quot;font-size: 14px;&quot;&gt;msg/MAVLink&lt;/font&gt;" style="edgeLabel;html=1;align=center;verticalAlign=middle;resizable=0;points=[];" parent="0zYFMab2U9M-8NxkRJWx-59" vertex="1" connectable="0">
          <mxGeometry x="-0.1032" y="2" relative="1" as="geometry">
            <mxPoint as="offset" />
          </mxGeometry>
        </mxCell>
        <mxCell id="0zYFMab2U9M-8NxkRJWx-61" value="" style="endArrow=classic;html=1;rounded=0;exitX=0.75;exitY=0;exitDx=0;exitDy=0;entryX=0.75;entryY=1;entryDx=0;entryDy=0;" parent="0zYFMab2U9M-8NxkRJWx-13" source="0zYFMab2U9M-8NxkRJWx-56" target="0zYFMab2U9M-8NxkRJWx-50" edge="1">
          <mxGeometry width="50" height="50" relative="1" as="geometry">
            <mxPoint x="804" y="200" as="sourcePoint" />
            <mxPoint x="854" y="150" as="targetPoint" />
          </mxGeometry>
        </mxCell>
        <mxCell id="0zYFMab2U9M-8NxkRJWx-62" value="&lt;font style=&quot;font-size: 14px;&quot;&gt;msg/MAVLink&lt;/font&gt;" style="edgeLabel;html=1;align=center;verticalAlign=middle;resizable=0;points=[];" parent="0zYFMab2U9M-8NxkRJWx-61" vertex="1" connectable="0">
          <mxGeometry x="0.1171" y="-1" relative="1" as="geometry">
            <mxPoint as="offset" />
          </mxGeometry>
        </mxCell>
        <mxCell id="0zYFMab2U9M-8NxkRJWx-14" value="&lt;font style=&quot;font-size: 18px;&quot;&gt;MAVROS_NODE&lt;/font&gt;" style="whiteSpace=wrap;html=1;" parent="0zYFMab2U9M-8NxkRJWx-13" vertex="1">
          <mxGeometry y="547" width="186" height="85" as="geometry" />
        </mxCell>
        <mxCell id="0zYFMab2U9M-8NxkRJWx-63" value="&lt;font style=&quot;font-size: 18px;&quot;&gt;serial port / UDP / TCP&lt;/font&gt;&lt;div&gt;&lt;font style=&quot;font-size: 18px;&quot;&gt;&lt;br&gt;&lt;/font&gt;&lt;div&gt;&lt;font style=&quot;font-size: 18px;&quot;&gt;Flight Controller(PX4)&lt;span style=&quot;white-space: pre;&quot;&gt;&#x9;&lt;/span&gt;Ground Station(QGC)&lt;/font&gt;&lt;/div&gt;&lt;/div&gt;" style="rounded=0;whiteSpace=wrap;html=1;" parent="1" vertex="1">
          <mxGeometry x="334.5" y="1076" width="459" height="136" as="geometry" />
        </mxCell>
        <mxCell id="0zYFMab2U9M-8NxkRJWx-64" value="" style="shape=flexArrow;endArrow=classic;startArrow=classic;html=1;rounded=0;entryX=0.5;entryY=1;entryDx=0;entryDy=0;" parent="1" source="0zYFMab2U9M-8NxkRJWx-63" target="0zYFMab2U9M-8NxkRJWx-13" edge="1">
          <mxGeometry width="100" height="100" relative="1" as="geometry">
            <mxPoint x="576" y="852" as="sourcePoint" />
            <mxPoint x="676" y="752" as="targetPoint" />
          </mxGeometry>
        </mxCell>
      </root>
    </mxGraphModel>
  </diagram>
</mxfile>
